<?xml version="1.0" encoding="UTF-8" standalone="no"?>
<svg
   xmlns:dc="http://purl.org/dc/elements/1.1/"
   xmlns:cc="http://creativecommons.org/ns#"
   xmlns:rdf="http://www.w3.org/1999/02/22-rdf-syntax-ns#"
   xmlns:svg="http://www.w3.org/2000/svg"
   xmlns="http://www.w3.org/2000/svg"
   xmlns:sodipodi="http://sodipodi.sourceforge.net/DTD/sodipodi-0.dtd"
   xmlns:inkscape="http://www.inkscape.org/namespaces/inkscape"
   sodipodi:docname="chit-chat.svg"
   inkscape:version="1.0 (4035a4fb49, 2020-05-01)"
   inkscape:export-ydpi="94.484589"
   inkscape:export-xdpi="94.484589"
   inkscape:export-filename="C:\Users\iminfinity\Desktop\bitmap.png"
   id="svg8"
   version="1.1"
   viewBox="0 0 152.89186 158.60028"
   height="158.60028mm"
   width="152.89186mm">
  <defs
     id="defs2">
    <linearGradient
       id="eb1b6581-0e6c-46f0-8ed9-49203ffc7122"
       x1="924.48999"
       y1="836.62"
       x2="924.48999"
       y2="217.05"
       gradientUnits="userSpaceOnUse">
      <stop
         offset="0"
         stop-color="gray"
         stop-opacity="0.25"
         id="stop224" />
      <stop
         offset="0.54"
         stop-color="gray"
         stop-opacity="0.12"
         id="stop226" />
      <stop
         offset="1"
         stop-color="gray"
         stop-opacity="0.1"
         id="stop228" />
    </linearGradient>
  </defs>
  <sodipodi:namedview
     inkscape:window-maximized="0"
     inkscape:window-y="0"
     inkscape:window-x="1442"
     inkscape:window-height="729"
     inkscape:window-width="1274"
     showgrid="false"
     inkscape:document-rotation="0"
     inkscape:current-layer="g541"
     inkscape:document-units="mm"
     inkscape:cy="361.56608"
     inkscape:cx="453.80557"
     inkscape:zoom="0.35"
     inkscape:pageshadow="2"
     inkscape:pageopacity="0.0"
     borderopacity="1.0"
     bordercolor="#666666"
     pagecolor="#ffffff"
     id="base" />
  <metadata
     id="metadata5">
    <rdf:RDF>
      <cc:Work
         rdf:about="">
        <dc:format>image/svg+xml</dc:format>
        <dc:type
           rdf:resource="http://purl.org/dc/dcmitype/StillImage" />
        <dc:title></dc:title>
      </cc:Work>
    </rdf:RDF>
  </metadata>
  <g
     transform="translate(68.825506,-109.25023)"
     id="layer1"
     inkscape:groupmode="layer"
     inkscape:label="Layer 1">
    <g
       transform="matrix(0.26458333,0,0,0.26458333,-127.08404,54.02737)"
       id="g541">
      <path
         style="stroke-width:0.779123"
         d="m 757.41958,372.75789 c 0,0 5.06154,2.34223 6.22002,5.54329 1.15849,3.20106 -6.22002,-5.54329 -6.22002,-5.54329 z"
         opacity="0.1"
         id="path369" />
      <ellipse
         style="stroke-width:0.779123"
         ry="0.28106844"
         rx="0.27990139"
         cx="679.21045"
         cy="393.86145"
         fill="#e6e8ec"
         id="circle413" />
      <path
         style="stroke-width:0.779123"
         d="M 531.67912,298.86032 328.3541,431.32162 461.0429,671.63511 a 9.2600704,9.2986802 0 0 0 5.90903,4.52832 l 120.22541,29.44973 a 9.2678449,9.3064879 0 0 0 10.5274,-5.00458 L 657.33929,576.19677 722.69625,488.46439 567.5998,304.20842 a 27.48476,27.599357 0 0 0 -35.92068,-5.3481 z"
         fill="#dcdfed"
         id="path417" />
      <path
         style="stroke-width:0.779123"
         d="m 724.76442,489.50277 -0.57535,0.78075 -38.2843,51.39649 -0.69197,0.92909 -25.80535,34.64168 -51.00425,106.42343 -1.43061,2.97464 -7.19968,15.01374 a 9.2678449,9.3064879 0 0 1 -10.54296,5.00458 L 469.00454,677.20183 a 9.2445205,9.2830656 0 0 1 -5.90903,-4.52832 l -11.56148,-20.90057 -2.07594,-3.76319 -83.44948,-151.1992 -0.7153,-1.28823 -34.87882,-63.16232 4.21407,-2.74822 31.94763,-20.80687 0.73863,-0.48406 67.27741,-43.83106 4.24516,-2.76384 94.89434,-61.82725 a 27.476984,27.59155 0 0 1 35.93622,5.34031 l 70.75286,84.0863 3.11001,3.74758 51.35413,61.00746 0.2799,0.33572 25.8209,30.66769 3.24996,3.86469 z"
         opacity="0.1"
         id="path419" />
      <path
         style="stroke-width:0.779123"
         d="m 693.17444,453.37768 -6.26669,43.72175 -1.88933,13.1946 -1.08073,28.10685 -0.0856,2.19389 -5.62135,146.85825 a 9.2756204,9.3142948 0 0 1 -11.28158,8.72093 l -60.59865,-13.58498 -0.6531,-0.14834 -155.41523,-34.82906 -2.85344,-0.64021 -85.4399,-19.1595 1.95931,-132.03969 0.0622,-4.41122 0.5909,-39.96637 0.65311,-44.11212 67.2774,-43.83106 4.24517,-2.76384 c 62.40246,6.42553 145.39322,18.78474 201.61452,27.59936 l 3.11001,3.74757 51.31525,61.00747 z"
         opacity="0.1"
         id="path421" />
      <path
         style="stroke-width:0.779123"
         d="m 700.27304,401.53617 -7.3785,51.52921 -6.76428,47.18827 -1.88934,13.16337 -1.08074,28.10684 -5.70687,149.05214 a 9.2756204,9.3142948 0 0 1 -11.28158,8.72093 l -61.25175,-13.73332 -155.41523,-34.82906 -88.29334,-19.7997 2.02151,-136.45091 0.5909,-39.96637 0.69198,-46.75105 0.70753,-48.08612 c 14.60153,-0.69487 38.6264,0.87443 67.30851,3.771 64.22181,6.47238 151.76874,19.56548 209.00857,28.58309 35.04987,5.51988 58.73263,9.50168 58.73263,9.50168 z"
         fill="#6c63ff"
         id="path423" />
      <path
         style="stroke-width:0.779123"
         d="m 718.99534,484.04536 -32.86508,16.18486 -167.7309,82.60288 -154.57554,-128.28431 -31.24787,-25.9754 -4.21407,2.74823 34.87882,63.16232 -2.02151,136.45091 88.29333,19.7997 11.53815,20.90056 a 9.2445205,9.2830656 0 0 0 5.90903,4.52832 l 120.22541,29.44973 a 9.2678449,9.3064879 0 0 0 10.51963,-5.00458 l 7.19969,-15.01374 61.25175,13.73332 a 9.2756204,9.3142948 0 0 0 11.28158,-8.72093 l 5.70688,-149.05214 38.97626,-52.30996 0.10885,-1.31946 z"
         opacity="0.1"
         id="path425" />
      <path
         style="stroke-width:0.779123"
         d="m 328.3541,431.32162 -13.86289,238.38505 a 9.2678449,9.3064879 0 0 0 7.23856,9.6266 l 368.1636,82.0954 a 9.2678449,9.3064879 0 0 0 11.21938,-8.33056 L 722.68848,488.46439 518.39936,589.07907 Z"
         fill="#dcdfed"
         id="path427" />
      <path
         style="stroke-width:0.779123"
         d="M 317.02587,675.16408 508.29181,556.67033 a 14.041719,14.100266 0 0 1 17.88258,2.81068 l 171.1908,200.48766 c 0.62199,0.71829 0.92522,0.20299 0,0 L 317.02587,675.16408 c -1.0885,-0.24203 -0.94855,0.56995 0,0 z"
         opacity="0.1"
         id="path429" />
      <path
         style="stroke-width:0.779123"
         d="M 318.39428,674.96889 507.68536,560.14464 a 14.842548,14.904434 0 0 1 18.87778,2.98245 l 169.64357,195.9125 a 2.044835,2.053361 0 0 1 -1.98265,3.34939 l -375.21555,-83.6647 a 2.03706,2.0455535 0 0 1 -0.61423,-3.75539 z"
         fill="#e3e5f1"
         id="path431" />
    </g>
  </g>
</svg>
